<svg width="705" height="549" viewBox="0 0 705 549" fill="none" xmlns="http://www.w3.org/2000/svg">
<path d="M661.627 120.562C665.089 120.161 667.979 122.901 669.385 126.089C700.704 197.11 715.063 273.022 694.468 349.542C667.007 429.915 617.001 485.483 541.496 523.903C478.232 551.456 398.929 557.058 333.561 532.567C275.071 508.425 220.228 468.869 190.607 411.272C189.181 408.5 189 405.5 190.607 402.608C204.277 392.763 219.277 384.912 233.926 376.616C238.226 374.098 242.526 371.579 246.956 368.985C253.238 365.391 253.238 365.391 259.647 361.725C265.469 358.383 265.469 358.383 271.408 354.973C277.948 352.177 280.282 351.179 284.571 351.974C291.277 353.218 296.985 357.667 301.094 363.11C302.891 365.49 304.669 368.041 308.382 373.367C330.606 402.797 354.171 415.715 389.877 424.268C443.25 428.99 487.195 424.538 529.853 389.612C557.693 362.793 576.75 328.776 580.483 289.977C580.167 283.733 579.741 277.493 579.231 271.262C574.699 213.075 574.699 213.075 590.01 191.95C601.501 178.5 612.001 168 625.501 155C632.001 148.741 639.098 141 644.501 134.5C652.897 124.4 657.224 121.072 661.627 120.562Z" fill="#0EB85C"/>
<path d="M595.085 47.4759C599.106 49.8337 600.578 54.9433 598.263 58.9892C590.971 71.7325 584.832 77.3019 576 89C571.856 93.0629 568.614 97.4069 564.5 101.5C562.439 103.541 559.643 107.024 557.52 109.127C555.448 111.179 553.377 113.231 551.242 115.346C549.103 117.448 547.704 119.834 545.5 122C536.463 131.858 534.85 133.28 528.834 140.971C526.056 144.522 521.27 145.846 517.093 144.149C516.566 143.935 516.036 143.72 515.503 143.503C511.215 141.806 506.926 140.108 502.507 138.359C499.788 137.265 497.068 136.17 494.267 135.042C448.829 117.251 405.044 115.001 359.553 134.027C310.871 159.939 286.298 196.935 269.665 248.283C255.923 286.779 232.385 315.326 195.7 333.568C192.589 334.908 189.479 336.248 186.274 337.629C183.292 339.125 180.31 340.621 177.238 342.162C160.086 347.775 144.415 347.369 126.49 347.139C121.055 347.121 121.055 347.121 115.511 347.102C103.991 347.054 92.4728 346.945 80.9535 346.835C73.1216 346.791 65.2897 346.752 57.4577 346.716C40.9478 346.64 24.4402 346.504 7.93088 346.362C3.53973 346.324 0 342.753 0 338.362C0 316.382 0 294.349 0 271.828C0 267.224 3.14426 263.214 7.61617 262.117C14.922 260.323 22.2702 258.52 29.7822 256.676C97.0742 238.947 138.291 205.899 174.581 145.838C216.23 79.0094 275.396 31.0134 350.889 8.40028C435.953 -11.1516 521.031 4.05495 595.085 47.4759Z" fill="#0EB85C"/>
</svg>
