<svg width="2618" height="829" viewBox="0 0 2618 829" fill="none" xmlns="http://www.w3.org/2000/svg">
<path d="M795.539 658V338.152H896.232V658H795.539ZM896.232 482.281L854.112 449.375C862.448 412.081 876.488 383.124 896.232 362.503C915.975 341.881 943.397 331.571 978.497 331.571C993.853 331.571 1007.24 333.984 1018.64 338.81C1030.49 343.198 1040.8 350.218 1049.57 359.87L989.685 435.554C985.298 430.728 979.813 426.999 973.232 424.366C966.651 421.734 959.192 420.417 950.856 420.417C934.183 420.417 920.801 425.682 910.71 436.212C901.058 446.304 896.232 461.66 896.232 482.281ZM1177.31 664.581C1147.03 664.581 1120.05 657.342 1096.36 642.863C1073.1 628.384 1054.68 608.641 1041.08 583.632C1027.91 558.623 1021.33 530.105 1021.33 498.076C1021.33 466.047 1027.91 437.529 1041.08 412.52C1054.68 387.511 1073.1 367.768 1096.36 353.289C1120.05 338.81 1147.03 331.571 1177.31 331.571C1199.24 331.571 1218.99 335.739 1236.54 344.075C1254.53 352.411 1269.22 364.038 1280.63 378.956C1292.48 393.434 1299.06 410.107 1300.38 428.973V563.888C1299.06 582.755 1292.7 599.866 1281.29 615.222C1269.88 630.139 1255.18 642.205 1237.2 651.419C1219.21 660.194 1199.24 664.581 1177.31 664.581ZM1195.08 573.76C1209.55 573.76 1222.06 570.689 1232.59 564.546C1243.12 557.965 1251.46 548.971 1257.6 537.563C1263.74 526.156 1266.81 512.993 1266.81 498.076C1266.81 483.159 1263.74 470.215 1257.6 459.247C1251.89 447.839 1243.56 438.845 1232.59 432.264C1222.06 425.682 1209.77 422.392 1195.73 422.392C1181.69 422.392 1169.19 425.682 1158.22 432.264C1147.69 438.845 1139.14 447.839 1132.55 459.247C1126.41 470.654 1123.34 483.597 1123.34 498.076C1123.34 512.555 1126.41 525.498 1132.55 536.905C1138.7 548.313 1147.25 557.307 1158.22 563.888C1169.19 570.47 1181.47 573.76 1195.08 573.76ZM1361.58 658H1262.86V571.786L1278 494.127L1260.89 416.469V180.202H1361.58V658ZM1564.1 665.239C1529.44 665.239 1498.51 658.219 1471.31 644.179C1444.54 629.701 1423.48 609.738 1408.13 584.29C1392.77 558.843 1385.09 530.105 1385.09 498.076C1385.09 466.047 1392.55 437.529 1407.47 412.52C1422.83 387.073 1443.45 367.109 1469.33 352.631C1495.22 338.152 1524.4 330.913 1556.86 330.913C1588.45 330.913 1616.31 337.713 1640.45 351.314C1664.58 364.916 1683.44 383.782 1697.04 407.913C1711.08 432.044 1718.1 459.685 1718.1 490.837C1718.1 496.54 1717.67 502.683 1716.79 509.264C1716.35 515.407 1715.25 522.646 1713.5 530.982L1437.74 531.64V462.537L1670.72 461.879L1627.28 490.837C1626.84 472.409 1623.99 457.272 1618.73 445.426C1613.46 433.141 1605.57 423.927 1595.04 417.785C1584.94 411.204 1572.44 407.913 1557.52 407.913C1541.73 407.913 1527.91 411.642 1516.06 419.101C1504.65 426.121 1495.66 436.212 1489.08 449.375C1482.93 462.537 1479.86 478.552 1479.86 497.418C1479.86 516.284 1483.15 532.518 1489.74 546.119C1496.76 559.281 1506.41 569.592 1518.69 577.051C1531.42 584.071 1546.33 587.581 1563.45 587.581C1579.24 587.581 1593.5 584.948 1606.22 579.683C1618.95 573.98 1630.14 565.643 1639.79 554.675L1695.07 609.957C1679.28 628.384 1660.19 642.205 1637.81 651.419C1615.44 660.632 1590.87 665.239 1564.1 665.239ZM1740.38 658V338.152H1841.08V658H1740.38ZM1945.06 658V471.093C1945.06 454.859 1940.01 442.355 1929.92 433.58C1920.27 424.366 1908.2 419.759 1893.73 419.759C1883.63 419.759 1874.64 421.953 1866.74 426.341C1858.85 430.289 1852.48 435.993 1847.66 443.452C1843.27 450.91 1841.08 460.124 1841.08 471.093L1802.25 453.982C1802.25 428.534 1807.73 406.816 1818.7 388.828C1829.67 370.4 1844.59 356.36 1863.45 346.708C1882.32 336.616 1903.6 331.571 1927.29 331.571C1949.67 331.571 1969.63 336.616 1987.18 346.708C2005.17 356.799 2019.43 370.839 2029.96 388.828C2040.49 406.816 2045.75 428.315 2045.75 453.324V658H1945.06ZM2149.74 658V471.093C2149.74 454.859 2144.69 442.355 2134.6 433.58C2124.95 424.366 2112.88 419.759 2098.4 419.759C2088.31 419.759 2079.32 421.953 2071.42 426.341C2063.52 430.289 2057.16 435.993 2052.33 443.452C2047.95 450.91 2045.75 460.124 2045.75 471.093L1987.84 463.195C1988.71 435.993 1995.08 412.739 2006.92 393.434C2019.21 373.691 2035.22 358.554 2054.97 348.024C2075.15 337.055 2097.74 331.571 2122.75 331.571C2147.32 331.571 2169.04 336.836 2187.91 347.366C2207.21 357.457 2222.35 372.155 2233.32 391.46C2244.72 410.326 2250.43 433.141 2250.43 459.905V658H2149.74ZM2442.63 665.239C2409.73 665.239 2379.89 658 2353.13 643.521C2326.8 628.604 2305.96 608.421 2290.6 582.974C2275.25 557.526 2267.57 529.008 2267.57 497.418C2267.57 465.828 2275.25 437.529 2290.6 412.52C2305.96 387.511 2326.8 367.768 2353.13 353.289C2379.45 338.371 2409.29 330.913 2442.63 330.913C2475.98 330.913 2505.81 338.152 2532.14 352.631C2558.46 367.109 2579.3 387.073 2594.66 412.52C2610.01 437.529 2617.69 465.828 2617.69 497.418C2617.69 529.008 2610.01 557.526 2594.66 582.974C2579.3 608.421 2558.46 628.604 2532.14 643.521C2505.81 658 2475.98 665.239 2442.63 665.239ZM2442.63 573.76C2457.11 573.76 2469.83 570.689 2480.8 564.546C2491.77 557.965 2500.11 548.971 2505.81 537.563C2511.95 525.717 2515.02 512.335 2515.02 497.418C2515.02 482.5 2511.95 469.557 2505.81 458.589C2499.67 447.181 2491.11 438.406 2480.14 432.264C2469.61 425.682 2457.11 422.392 2442.63 422.392C2428.59 422.392 2416.09 425.682 2405.12 432.264C2394.15 438.406 2385.59 447.181 2379.45 458.589C2373.31 469.996 2370.24 483.159 2370.24 498.076C2370.24 512.555 2373.31 525.717 2379.45 537.563C2385.59 548.971 2394.15 557.965 2405.12 564.546C2416.09 570.689 2428.59 573.76 2442.63 573.76Z" fill="#0EB85C"/>
<path d="M661.627 261.562C665.089 261.161 667.979 263.901 669.385 267.089C700.704 338.11 715.063 414.022 694.468 490.542C667.007 570.915 617.001 626.483 541.496 664.903C478.232 692.456 398.929 698.058 333.561 673.567C275.071 649.425 220.228 609.869 190.607 552.272C189.181 549.5 189 546.5 190.607 543.608C204.277 533.763 219.277 525.912 233.926 517.616C238.226 515.098 242.526 512.579 246.956 509.985C253.238 506.391 253.238 506.391 259.647 502.725C265.469 499.383 265.469 499.383 271.408 495.973C277.948 493.177 280.282 492.179 284.571 492.974C291.277 494.218 296.985 498.667 301.094 504.11C302.891 506.49 304.669 509.041 308.382 514.367C330.606 543.797 354.171 556.715 389.877 565.268C443.25 569.99 487.195 565.538 529.853 530.612C557.693 503.793 576.75 469.776 580.483 430.977C580.167 424.733 579.741 418.493 579.231 412.262C574.699 354.075 574.699 354.075 590.01 332.95C601.501 319.5 612.001 309 625.501 296C632.001 289.741 639.098 282 644.501 275.5C652.897 265.4 657.224 262.072 661.627 261.562Z" fill="#0EB85C"/>
<path d="M595.085 188.476C599.106 190.834 600.578 195.943 598.263 199.989C590.971 212.733 584.832 218.302 576 230C571.856 234.063 568.614 238.407 564.5 242.5C562.439 244.541 559.643 248.024 557.52 250.127C555.448 252.179 553.377 254.231 551.242 256.346C549.103 258.448 547.704 260.834 545.5 263C536.463 272.858 534.85 274.28 528.834 281.971C526.056 285.522 521.27 286.846 517.093 285.149C516.566 284.935 516.036 284.72 515.503 284.503C511.215 282.806 506.926 281.108 502.507 279.359C499.788 278.265 497.068 277.17 494.267 276.042C448.829 258.251 405.044 256.001 359.553 275.027C310.871 300.939 286.298 337.935 269.665 389.283C255.923 427.779 232.385 456.326 195.7 474.568C192.589 475.908 189.479 477.248 186.274 478.629C183.292 480.125 180.31 481.621 177.238 483.162C160.086 488.775 144.415 488.369 126.49 488.139C121.055 488.121 121.055 488.121 115.511 488.102C103.991 488.054 92.4728 487.945 80.9535 487.835C73.1216 487.791 65.2897 487.752 57.4577 487.716C40.9478 487.64 24.4402 487.504 7.93088 487.362C3.53973 487.324 0 483.753 0 479.362C0 457.382 0 435.349 0 412.828C0 408.224 3.14426 404.214 7.61617 403.117C14.922 401.323 22.2702 399.52 29.7822 397.676C97.0742 379.947 138.291 346.899 174.581 286.838C216.23 220.009 275.396 172.013 350.889 149.4C435.953 129.848 521.031 145.055 595.085 188.476Z" fill="#0EB85C"/>
</svg>
