<svg width="3191" height="924" viewBox="0 0 3191 924" fill="none" xmlns="http://www.w3.org/2000/svg">
<path d="M301.489 743.27C260.41 743.27 222.51 736.423 187.789 722.73C153.556 709.037 123.481 689.965 97.5621 665.513C72.1324 641.062 52.3265 612.209 38.1446 578.955C23.9626 545.7 16.8716 509.756 16.8716 471.123C16.8716 432 23.7181 396.056 37.411 363.291C51.593 330.526 71.3988 301.917 96.8285 277.466C122.258 253.014 152.089 234.186 186.322 220.982C221.043 207.29 258.943 200.443 300.022 200.443C341.101 200.443 378.756 207.29 412.988 220.982C447.71 234.186 477.785 253.014 503.215 277.466C528.645 301.917 548.206 330.77 561.899 364.025C576.081 396.79 583.172 432.734 583.172 471.856C583.172 510.49 576.081 546.434 561.899 579.688C548.206 612.453 528.645 641.306 503.215 666.247C477.785 690.699 447.954 709.771 413.722 723.464C379.49 736.668 342.079 743.27 301.489 743.27ZM300.022 614.165C327.408 614.165 351.126 608.297 371.176 596.56C391.226 584.823 406.631 568.196 417.39 546.678C428.148 525.161 433.528 499.976 433.528 471.123C433.528 449.605 430.349 430.289 423.992 413.172C418.123 395.567 409.321 380.652 397.584 368.426C385.847 355.711 371.665 346.175 355.038 339.817C338.9 332.971 320.561 329.548 300.022 329.548C272.636 329.548 248.918 335.416 228.867 347.153C208.817 358.401 193.413 374.783 182.654 396.301C171.895 417.329 166.516 442.27 166.516 471.123C166.516 493.129 169.45 512.935 175.318 530.54C181.676 548.146 190.723 563.306 202.46 576.02C214.196 588.246 228.134 597.782 244.272 604.629C260.899 610.986 279.482 614.165 300.022 614.165ZM605.442 733V372.094H749.218V733H605.442ZM749.218 537.876L682.465 478.458C701.048 439.336 722.565 410.727 747.017 392.633C771.958 374.05 803.011 364.758 840.178 364.758C856.805 364.758 870.987 366.714 882.724 370.627C894.95 374.539 904.73 380.163 912.066 387.498L831.375 501.932C827.952 498.02 822.817 494.841 815.971 492.396C809.613 489.462 802.033 487.994 793.231 487.994C778.56 487.994 767.556 492.396 760.221 501.198C752.885 509.512 749.218 521.738 749.218 537.876ZM1048.98 740.335C1013.28 740.335 981.978 732.266 955.081 716.128C928.674 699.99 907.89 677.984 892.73 650.109C878.059 621.745 870.723 589.224 870.723 552.547C870.723 515.869 878.059 483.349 892.73 454.985C907.89 426.621 928.674 404.614 955.081 388.965C981.978 372.827 1013.28 364.758 1048.98 364.758C1070.49 364.758 1090.79 368.426 1109.86 375.761C1128.93 382.608 1145.07 392.388 1158.27 405.103C1171.97 417.818 1180.53 432.489 1183.95 449.116V648.642C1180.53 665.269 1171.97 680.673 1158.27 694.855C1145.07 708.548 1128.93 719.552 1109.86 727.865C1090.79 736.179 1070.49 740.335 1048.98 740.335ZM1075.38 614.165C1087.61 614.165 1098.12 611.72 1106.93 606.829C1115.73 601.45 1122.58 594.115 1127.47 584.823C1132.84 575.531 1135.53 564.773 1135.53 552.547C1135.53 540.321 1133.09 529.807 1128.2 521.004C1123.31 511.713 1116.22 504.377 1106.93 498.998C1098.12 493.618 1087.85 490.929 1076.12 490.929C1064.38 490.929 1053.87 493.618 1044.57 498.998C1035.77 504.377 1028.68 511.713 1023.3 521.004C1017.92 530.296 1015.23 540.81 1015.23 552.547C1015.23 564.284 1017.68 574.798 1022.57 584.089C1027.95 593.381 1035.28 600.717 1044.57 606.096C1053.87 611.475 1064.14 614.165 1075.38 614.165ZM1271.24 733H1131.13V636.171L1150.94 548.146L1127.47 460.853V196.042H1271.24V733ZM1498.9 741.803C1456.84 741.803 1419.92 733.978 1388.13 718.329C1356.35 702.191 1331.41 679.94 1313.31 651.576C1295.71 622.723 1286.9 589.713 1286.9 552.547C1286.9 515.869 1295.46 483.349 1312.58 454.985C1330.18 426.621 1354.15 404.37 1384.47 388.232C1414.79 371.605 1449.02 363.291 1487.16 363.291C1524.82 363.291 1558.07 371.116 1586.93 386.765C1615.78 401.925 1638.27 423.198 1654.41 450.583C1671.04 477.969 1679.35 509.267 1679.35 544.478C1679.35 551.813 1678.86 559.638 1677.89 567.951C1677.4 575.776 1675.93 585.068 1673.48 595.826L1347.79 598.027V510.001L1619.94 507.8L1553.18 546.678C1553.18 527.117 1550.74 511.224 1545.85 498.998C1541.45 486.283 1534.6 476.747 1525.31 470.389C1516.02 464.032 1504.28 460.853 1490.1 460.853C1475.43 460.853 1462.71 464.521 1451.95 471.856C1441.19 479.192 1432.88 489.706 1427.01 503.399C1421.63 517.092 1418.94 533.719 1418.94 553.28C1418.94 573.331 1421.88 590.202 1427.75 603.895C1434.1 617.099 1443.15 627.124 1454.89 633.971C1466.62 640.817 1481.29 644.241 1498.9 644.241C1516.02 644.241 1530.93 641.551 1543.65 636.171C1556.85 630.303 1568.83 621.256 1579.59 609.03L1651.48 680.184C1633.38 700.724 1611.62 716.128 1586.19 726.398C1560.76 736.668 1531.66 741.803 1498.9 741.803ZM1692.96 733V372.094H1836.73V733H1692.96ZM1915.22 733V526.139C1915.22 513.913 1911.56 504.377 1904.22 497.531C1896.88 490.195 1887.59 486.527 1876.35 486.527C1868.52 486.527 1861.43 488.239 1855.07 491.662C1849.2 494.596 1844.56 498.998 1841.13 504.866C1838.2 510.734 1836.73 517.825 1836.73 526.139L1780.98 505.6C1780.98 476.258 1787.34 451.072 1800.06 430.044C1813.26 409.016 1830.87 392.878 1852.87 381.63C1874.88 370.382 1899.82 364.758 1927.69 364.758C1952.15 364.758 1974.15 370.627 1993.71 382.363C2013.76 394.1 2029.66 410.483 2041.39 431.511C2053.13 452.051 2059 476.502 2059 504.866V733H1915.22ZM2137.49 733V526.139C2137.49 513.913 2133.82 504.377 2126.49 497.531C2119.15 490.195 2109.86 486.527 2098.61 486.527C2090.79 486.527 2083.7 488.239 2077.34 491.662C2071.47 494.596 2066.82 498.998 2063.4 504.866C2060.47 510.734 2059 517.825 2059 526.139L1974.64 526.873C1974.64 493.129 1981.24 464.276 1994.45 440.314C2008.14 415.862 2026.97 397.279 2050.93 384.564C2074.89 371.36 2102.28 364.758 2133.09 364.758C2161.94 364.758 2187.37 370.871 2209.38 383.097C2231.87 395.323 2249.48 412.928 2262.19 435.912C2274.91 458.897 2281.26 486.527 2281.26 518.804V733H2137.49ZM2494.56 741.803C2454.94 741.803 2419.49 733.734 2388.19 717.595C2357.38 700.968 2332.93 678.228 2314.84 649.375C2297.23 620.522 2288.43 588.002 2288.43 551.813C2288.43 515.625 2297.23 483.349 2314.84 454.985C2332.44 426.621 2356.65 404.37 2387.46 388.232C2418.76 371.605 2454.21 363.291 2493.82 363.291C2533.43 363.291 2568.64 371.605 2599.45 388.232C2630.26 404.37 2654.47 426.621 2672.07 454.985C2690.17 483.349 2699.22 515.625 2699.22 551.813C2699.22 588.002 2690.41 620.522 2672.81 649.375C2655.2 678.228 2631 700.968 2600.19 717.595C2569.38 733.734 2534.17 741.803 2494.56 741.803ZM2493.82 615.632C2506.05 615.632 2516.56 613.187 2525.36 608.297C2534.66 602.917 2541.75 595.582 2546.64 586.29C2551.53 576.509 2553.97 565.262 2553.97 552.547C2553.97 539.832 2551.28 528.829 2545.9 519.537C2541.01 509.756 2534.17 502.421 2525.36 497.531C2516.56 492.151 2506.05 489.462 2493.82 489.462C2482.09 489.462 2471.57 492.151 2462.28 497.531C2453.48 502.91 2446.39 510.49 2441.01 520.271C2436.12 529.562 2433.67 540.565 2433.67 553.28C2433.67 565.506 2436.12 576.509 2441.01 586.29C2446.39 595.582 2453.48 602.917 2462.28 608.297C2471.57 613.187 2482.09 615.632 2493.82 615.632Z" fill="#2FBF71"/>
<path d="M3077.7 741.803C3054.72 741.803 3035.64 733.978 3020.48 718.329C3005.32 702.68 2997.74 683.608 2997.74 661.112C2997.74 638.128 3005.32 618.811 3020.48 603.162C3035.64 587.513 3054.72 579.688 3077.7 579.688C3100.68 579.688 3119.51 587.513 3134.18 603.162C3149.34 618.811 3156.92 638.128 3156.92 661.112C3156.92 683.608 3149.34 702.68 3134.18 718.329C3119.51 733.978 3100.68 741.803 3077.7 741.803Z" fill="white"/>
</svg>
